<svg id="Layer_1" data-name="Layer 1" xmlns="http://www.w3.org/2000/svg" viewBox="0 0 23709.96 17959.41"><defs><style>.cls-1{fill:none;}.cls-2{fill:#fff;stroke:#231f20;stroke-width:53px;}.cls-2,.cls-3{stroke-miterlimit:10;}.cls-3{fill:#231f20;stroke:#00a651;}</style></defs><rect class="cls-1" width="23709.96" height="17959.41"/><circle class="cls-2" cx="11854.98" cy="8979.7" r="6635.25"/><path class="cls-3" d="M1146.65-710.38V942.4c0,44.35-12.54,87.47-35.57,122.4C365.27,2196-93.92,2726-1012.42,4023.2c-21.39,30.21-63,12.21-62.89-27.24,3.68-2042.56,4.7-2607.27,8.49-4706.34,0-586.09-14.86-1040.7,567.43-1061.11H579.22C1146.65-1771.49,1146.65-1296.47,1146.65-710.38Z" transform="translate(9591.01 7358.6)"/><path class="cls-3" d="M-1001.92,4720h0c-80.73-59.3-97.41-173.74-37.27-255.62L3066.29-1124.15c514.46-700.3,1491.28-856.79,2181.78-349.52h0c71.26,52.35,86,153.38,32.9,225.65L1150,4375.24C642.55,5065.94-320.88,5220.28-1001.92,4720Z" transform="translate(9591.01 7358.6)"/><path class="cls-3" d="M3726.32,1827.26,5573.88,4726.34c79.84,125.29-12.54,287.36-163.81,287.36h-2223s-589.28-9-794.14-794.66c-140.46-538.67-10.91-1110.56,337.71-1550.26l679.68-857.27C3492.5,1707.9,3655.43,1716,3726.32,1827.26Z" transform="translate(9591.01 7358.6)"/></svg>