<svg id="Layer_1" data-name="Layer 1" xmlns="http://www.w3.org/2000/svg" viewBox="0 0 5442.52 3061.42"><defs><style>.cls-1{fill:none;}.cls-2{fill:#fff;stroke:#231f20;stroke-width:40px;}.cls-2,.cls-3{stroke-miterlimit:10;}.cls-3{fill:#231f20;stroke:#00a651;}</style></defs><rect class="cls-1" x="149.63" y="-387.77" width="5077.13" height="3845.74"/><circle class="cls-2" cx="2688.2" cy="1535.1" r="1420.84"/><path class="cls-3" d="M2448.94,1035.85v353.92a47.78,47.78,0,0,1-7.62,26.21c-159.7,242.23-258,355.72-454.71,633.5-4.58,6.47-13.48,2.61-13.47-5.83.79-437.39,1-558.31,1.82-1007.8,0-125.5-3.18-222.85,121.51-227.22h231C2448.94,808.63,2448.94,910.35,2448.94,1035.85Z"/><path class="cls-3" d="M1988.86,2198.68h0c-17.29-12.7-20.86-37.21-8-54.74L2860,947.25c110.17-150,319.34-183.47,467.2-74.85h0c15.26,11.21,18.41,32.85,7,48.32L2449.65,2124.86C2341,2272.76,2134.69,2305.81,1988.86,2198.68Z"/><path class="cls-3" d="M3001.34,1579.25,3397,2200c17.09,26.83-2.69,61.54-35.08,61.54h-476s-126.18-1.92-170-170.17c-30.08-115.35-2.34-237.81,72.31-332l145.55-183.57C2951.27,1553.69,2986.16,1555.43,3001.34,1579.25Z"/></svg>