<svg id="Layer_1" data-name="Layer 1" xmlns="http://www.w3.org/2000/svg" viewBox="0 0 10926.81 8276.65"><defs><style>.cls-1{fill:none;}.cls-2{fill:#fff;stroke:#231f20;stroke-width:40px;}.cls-2,.cls-3{stroke-miterlimit:10;}.cls-3{fill:#231f20;stroke:#00a651;}</style></defs><rect class="cls-1" width="10926.81" height="8276.65"/><circle class="cls-2" cx="5463.41" cy="4138.33" r="3057.88"/><path class="cls-3" d="M2008,335.45v761.69c0,20.44-5.77,40.31-16.39,56.41-343.71,521.32-555.33,765.56-978.62,1363.39-9.86,13.92-29,5.62-29-12.56,1.69-941.32,2.16-1201.57,3.91-2168.93,0-270.1-6.85-479.61,261.5-489h497.08C2008-153.57,2008,65.35,2008,335.45Z" transform="translate(2940.47 2728.4)"/><path class="cls-3" d="M1017.84,2838h0c-37.21-27.33-44.9-80.07-17.18-117.8l1892-2575.48C3129.78-178,3580-250.09,3898.17-16.32h0c32.84,24.13,39.63,70.69,15.16,104L2009.54,2679.17C1775.7,2997.49,1331.7,3068.61,1017.84,2838Z" transform="translate(2940.47 2728.4)"/><path class="cls-3" d="M3196.86,1504.93,4048.32,2841c36.79,57.74-5.78,132.43-75.49,132.43H2948.36s-271.57-4.14-366-366.22c-64.73-248.25-5-511.8,155.63-714.44l313.24-395.08C3089.11,1449.92,3164.19,1453.66,3196.86,1504.93Z" transform="translate(2940.47 2728.4)"/></svg>