<svg id="Layer_1" data-name="Layer 1" xmlns="http://www.w3.org/2000/svg" viewBox="0 0 5442.52 3061.42"><defs><style>.cls-1{fill:none;}.cls-2{fill:#fff;stroke:#231f20;stroke-width:40px;}.cls-2,.cls-3{stroke-miterlimit:10;}.cls-3{fill:#231f20;stroke:#00a651;}</style></defs><rect class="cls-1" x="1199.43" y="401.83" width="3284.43" height="2487.83"/><circle class="cls-2" cx="2841.64" cy="1645.74" r="919.15"/><path class="cls-3" d="M2686.86,1322.77v229a31,31,0,0,1-4.93,17c-103.31,156.7-166.92,230.12-294.15,409.82-3,4.18-8.73,1.69-8.72-3.78.51-282.94.66-361.17,1.18-651.95,0-81.18-2.06-144.16,78.6-147h149.42C2686.86,1175.78,2686.86,1241.59,2686.86,1322.77Z"/><path class="cls-3" d="M2389.23,2075h0a25.31,25.31,0,0,1-5.16-35.41l568.71-774.14c71.27-97,206.58-118.69,302.23-48.42h0a22.35,22.35,0,0,1,4.56,31.26l-572.25,779C2617,2122.94,2483.57,2144.32,2389.23,2075Z"/><path class="cls-3" d="M3044.21,1674.3l255.93,401.6c11.06,17.35-1.73,39.8-22.69,39.8H2969.52s-81.63-1.24-110-110.08c-19.46-74.62-1.51-153.84,46.78-214.75l94.15-118.75C3011.82,1657.77,3034.39,1658.89,3044.21,1674.3Z"/></svg>